Coordinates
version=1
nRows=16
nColumns=28
inDegrees=yes

Units are S.I. units (second, meters, Newtons, ...)
Angles are in degrees.

endheader
time	pelvis_tilt	pelvis_list	pelvis_rotation	pelvis_tx	pelvis_ty	pelvis_tz	hip_flexion_r	hip_adduction_r	hip_rotation_r	knee_angle_r	ankle_angle_r	subtalar_angle_r	mtp_angle_r	hip_flexion_l	hip_adduction_l	hip_rotation_l	knee_angle_l	socket_flexion	socket_adduction	socket_rotation	socket_tx	socket_ty	socket_tz	foot_flex	lumbar_extension	lumbar_bending	lumbar_rotation
      0.95000000	      3.42853158	     -0.06036203	     -1.92295243	      0.41557350	      1.03891615	      0.32597770	      2.13829151	      3.04216348	     -6.42315860	    -19.82644439	      6.29685904	     -3.29536121	     15.69521475	     12.77369686	     -1.35490336	     -0.80946612	    -65.65298801	     -6.35059979	      0.00000000	      0.00000000	      0.00000000	      0.03160737	      0.00000000	      0.40920788	    -11.37147957	      0.13512219	      3.47678126
      0.95416667	      3.37039849	      0.06012863	     -2.14025958	      0.42025485	      1.03965537	      0.32648465	      1.74970937	      2.89770372	     -6.39312843	    -19.48268957	      6.19941736	     -2.87808221	     15.84089523	     13.42240518	     -1.20345351	     -0.72904382	    -65.29346161	     -6.40173511	      0.00000000	      0.00000000	      0.00000000	      0.03179038	      0.00000000	      0.40963397	    -11.35674332	     -0.06701966	      3.72348856
      0.95833333	      3.31961262	      0.33199219	     -2.50879185	      0.42524834	      1.04030345	      0.32698229	      1.54680354	      2.43445848	     -6.78380100	    -19.54325283	      6.21214874	     -1.40568689	     17.22665307	     13.80930428	     -0.89506001	     -0.80199938	    -64.44210494	     -6.23160559	      0.00000000	      0.00000000	      0.00000000	      0.03090948	      0.00000000	      0.41742949	    -11.30818018	     -0.44505622	      4.32074251
      0.96250000	      3.28933852	      0.40486096	     -2.68126039	      0.42987540	      1.04098570	      0.32740548	      1.11976564	      2.34468036	     -6.75145136	    -19.18296720	      6.13364232	     -1.26379108	     17.27318791	     14.43334602	     -0.79657077	     -0.67772589	    -64.06726159	     -6.30087343	      0.00000000	      0.00000000	      0.00000000	      0.03113906	      0.00000000	      0.41077426	    -11.34300617	     -0.55988997	      4.36686819
      0.96666667	      3.23316323	      0.45667078	     -2.87700710	      0.43472678	      1.04161890	      0.32783372	      0.69852747	      2.26465898	     -6.75374728	    -18.78633159	      5.81267119	     -0.95909939	     17.48198174	     14.92027774	     -0.70765526	     -0.51862673	    -63.38761788	     -6.25201023	      0.00000000	      0.00000000	      0.00000000	      0.03059996	      0.00000000	      0.43136763	    -11.31196571	     -0.65255988	      4.54119897
      0.97083333	      3.24696746	      0.44764330	     -3.13042998	      0.43900140	      1.04212568	      0.32831464	      0.40984974	      2.22295367	     -6.80944405	    -18.77350142	      5.82538991	     -0.94298582	     17.48889200	     15.48682036	     -0.71272335	     -0.43479045	    -63.00404599	     -6.36525636	      0.00000000	      0.00000000	      0.00000000	      0.03068393	      0.00000000	      0.45844764	    -11.47294911	     -0.67108451	      4.55118382
      0.97500000	      3.14024410	      0.58734759	     -3.22656598	      0.44385228	      1.04271853	      0.32871968	     -0.10049504	      2.10896562	     -6.61206535	    -18.09099449	      5.78008900	     -0.63810524	     17.57652432	     16.12017385	     -0.51791190	     -0.20051343	    -62.41599986	     -6.35753302	      0.00000000	      0.00000000	      0.00000000	      0.03089688	      0.00000000	      0.40783771	    -11.36935807	     -0.89186039	      4.71656838
      0.97916667	      3.15020121	      0.57065334	     -3.47405112	      0.44809953	      1.04312407	      0.32917244	     -0.37873718	      2.06885715	     -6.66849189	    -18.08489665	      5.76808949	     -0.61090154	     17.58180095	     16.67049567	     -0.53288537	     -0.10215772	    -61.98451140	     -6.48097568	      0.00000000	      0.00000000	      0.00000000	      0.03098383	      0.00000000	      0.44516406	    -11.51821105	     -0.90109352	      4.73591574
      0.98333333	      3.29076694	      0.82324433	     -3.84928003	      0.45375523	      1.04417242	      0.32993848	     -1.17404822	      1.74535248	     -6.50955913	    -17.39761201	      5.34237930	      0.16266766	     18.51817081	     16.24171946	     -0.23992659	     -0.05107177	    -59.79563394	     -5.73020545	      0.00000000	      0.00000000	      0.00000000	      0.02765888	      0.00000000	      0.42439677	    -11.57961737	     -1.32059442	      5.35438751
      0.98750000	      3.29809164	      0.80969500	     -4.07622714	      0.45794147	      1.04449307	      0.33041926	     -1.45908193	      1.70821083	     -6.54822281	    -17.34908927	      5.34786751	      0.19311139	     18.52836275	     16.81030763	     -0.25808636	      0.08313054	    -59.36970409	     -5.87580117	      0.00000000	      0.00000000	      0.00000000	      0.02797957	      0.00000000	      0.45610748	    -11.72905063	     -1.33173278	      5.36920763
      0.99166667	      3.13893294	      0.83059991	     -4.10585573	      0.46275661	      1.04475632	      0.33067008	     -1.91127652	      1.72687408	     -6.39001716	    -16.68733514	      5.29529489	      0.46261517	     18.59890595	     17.39781517	     -0.15717435	      0.49659490	    -58.59329951	     -5.84720805	      0.00000000	      0.00000000	      0.00000000	      0.02769230	      0.00000000	      0.40978241	    -11.59135195	     -1.40315256	      5.50361417
      0.99583333	      3.14537836	      0.80535205	     -4.33759487	      0.46692530	      1.04494917	      0.33115986	     -2.17342060	      1.69784104	     -6.45185003	    -16.69688916	      5.28678374	      0.47628752	     18.59931411	     17.94618759	     -0.20044948	      0.60674288	    -58.12986605	     -6.00823962	      0.00000000	      0.00000000	      0.00000000	      0.02801875	      0.00000000	      0.45428361	    -11.75143254	     -1.41123966	      5.51123358
      1.00000000	      2.92499068	      0.79611865	     -4.47627598	      0.47248790	      1.04522756	      0.33155270	     -2.64257116	      1.72616262	     -6.32284330	    -15.90083336	      4.75047256	      0.83208341	     18.78347720	     17.96910398	     -0.15665849	      1.01628759	    -56.04154174	     -5.30140286	      0.00000000	      0.00000000	      0.00000000	      0.02485292	      0.00000000	      0.46867892	    -11.42313286	     -1.41573623	      5.72500946
      1.00416667	      3.37311638	      0.94796629	     -4.85704112	      0.47742610	      1.04627011	      0.33244998	     -3.66100986	      1.50257879	     -6.06099957	    -15.37354670	      4.60628964	      0.87860066	     19.57658552	     17.34612180	     -0.00117678	      1.08681848	    -54.07489480	     -4.74373782	      0.00000000	      0.00000000	      0.00000000	      0.02253618	      0.00000000	      0.44635128	    -11.95874353	     -1.75270785	      6.07255312
      1.00833333	      3.38016973	      0.91853715	     -5.07055654	      0.48152117	      1.04630478	      0.33293678	     -3.93283926	      1.47964967	     -6.09752925	    -15.36305965	      4.61699477	      0.89510830	     19.58566725	     17.91475010	     -0.05459643	      1.23372947	    -53.66117046	     -4.96916555	      0.00000000	      0.00000000	      0.00000000	      0.02317050	      0.00000000	      0.47352450	    -12.12478611	     -1.77126802	      6.08064920
      1.01250000	      3.05975566	      0.78444608	     -5.01519757	      0.48669280	      1.04607983	      0.33304958	     -4.30551531	      1.68654362	     -5.99411918	    -14.56931177	      4.48313411	      1.13052024	     19.66390340	     18.35033685	     -0.11927194	      1.85706819	    -52.19844000	     -4.60586773	      0.00000000	      0.00000000	      0.00000000	      0.02141430	      0.00000000	      0.45051753	    -11.75610668	     -1.61257469	      6.19909988
